<?xml version="1.0" standalone="no"?>
<!DOCTYPE svg PUBLIC "-//W3C//DTD SVG 20010904//EN"
 "http://www.w3.org/TR/2001/REC-SVG-20010904/DTD/svg10.dtd">
<svg version="1.0" xmlns="http://www.w3.org/2000/svg"
 width="512.000000pt" height="512.000000pt" viewBox="0 0 512.000000 512.000000"
 preserveAspectRatio="xMidYMid meet">

<g transform="translate(0.000000,512.000000) scale(0.100000,-0.100000)"
fill="#000000" stroke="none">
<path d="M1196 2699 c-9 -87 -8 -149 3 -149 5 0 22 7 37 15 60 31 127 13 150
-40 43 -104 -50 -184 -165 -144 -34 12 -52 6 -34 -12 19 -19 91 -30 134 -20
79 18 121 90 99 171 -16 59 -57 82 -137 78 l-63 -4 0 46 c0 90 1 90 101 90 72
0 89 3 89 15 0 12 -18 15 -104 15 l-103 0 -7 -61z"/>
<path d="M1592 2713 c-34 -27 -61 -56 -62 -66 0 -16 7 -13 41 15 87 71 79 85
79 -126 0 -159 2 -186 15 -186 13 0 15 29 15 205 0 166 -3 205 -14 205 -7 0
-41 -21 -74 -47z"/>
<path d="M1891 2747 c-30 -15 -43 -44 -15 -32 84 36 161 27 183 -21 29 -64 -3
-130 -114 -237 -47 -46 -85 -88 -85 -95 0 -9 33 -12 120 -12 73 0 120 4 120
10 0 6 -41 10 -102 10 l-102 0 82 84 c82 84 121 148 122 198 0 40 -20 78 -51
94 -34 17 -125 18 -158 1z"/>
<path d="M2846 2699 c-9 -87 -8 -149 3 -149 5 0 22 7 37 15 60 31 127 13 150
-40 43 -104 -50 -184 -165 -144 -34 12 -52 6 -34 -12 19 -19 91 -30 134 -20
79 18 121 90 99 171 -16 59 -57 82 -137 78 l-63 -4 0 46 c0 90 1 90 101 90 72
0 89 3 89 15 0 12 -18 15 -104 15 l-103 0 -7 -61z"/>
<path d="M3242 2713 c-34 -27 -61 -56 -62 -66 0 -16 7 -13 41 15 87 71 79 85
79 -126 0 -159 2 -186 15 -186 13 0 15 29 15 205 0 166 -3 205 -14 205 -7 0
-41 -21 -74 -47z"/>
<path d="M3541 2747 c-30 -15 -43 -44 -15 -32 84 36 161 27 183 -21 29 -64 -3
-130 -114 -237 -47 -46 -85 -88 -85 -95 0 -9 33 -12 120 -12 73 0 120 4 120
10 0 6 -41 10 -102 10 l-102 0 82 84 c82 84 121 148 122 198 0 40 -20 78 -51
94 -34 17 -125 18 -158 1z"/>
<path d="M2337 2643 c-3 -5 18 -34 48 -63 30 -30 55 -59 55 -64 0 -6 -25 -36
-56 -67 -35 -35 -54 -62 -49 -69 5 -8 28 9 71 51 l64 63 60 -59 c33 -32 63
-56 67 -52 4 4 -20 34 -52 67 l-59 60 57 58 c52 52 70 82 49 82 -4 0 -34 -27
-67 -60 l-59 -60 -62 61 c-34 34 -64 57 -67 52z"/>
</g>
</svg>
