<svg version="1.1" id="Layer_1" xmlns="http://www.w3.org/2000/svg" xmlns:xlink="http://www.w3.org/1999/xlink" x="0px" y="0px"
	 width="100%" viewBox="0 0 512 512" enable-background="new 0 0 512 512" xml:space="preserve">
<path fill="#FFFFFF" opacity="1.000000" stroke="none" 
	d="
M231.000000,513.000000 
	C154.018661,513.000000 77.537323,513.000000 1.027995,513.000000 
	C1.027995,342.393646 1.027995,171.787262 1.027995,1.090449 
	C171.564697,1.090449 342.129456,1.090449 512.847107,1.090449 
	C512.847107,171.666565 512.847107,342.333252 512.847107,513.000000 
	C419.120575,513.000000 325.310272,513.000000 231.000000,513.000000 
M337.788727,285.334747 
	C338.878876,279.556122 339.969025,273.777466 341.343506,267.280823 
	C342.050598,264.447998 342.757721,261.615143 343.448975,258.845825 
	C360.042267,261.223755 361.889374,260.478271 361.868256,252.614960 
	C356.238159,252.228867 350.670898,251.989761 345.135254,251.434921 
	C336.262054,250.545532 327.502075,250.090546 319.472107,255.050934 
	C313.751740,258.584595 310.813873,263.668640 311.041382,270.424438 
	C311.200378,275.145294 313.371094,276.880371 318.337372,276.492615 
	C317.019714,262.794281 321.968933,256.282410 332.014984,258.646088 
	C331.691254,261.096008 331.366241,263.555969 330.682831,266.677429 
	C329.450348,273.116089 328.217865,279.554718 326.602966,286.643311 
	C325.342560,292.896729 324.082153,299.150146 322.754303,305.738068 
	C326.751465,305.738068 330.006683,305.738068 333.708893,305.738068 
	C334.979889,299.069702 336.228149,292.520508 337.788727,285.334747 
M181.601166,300.370209 
	C182.012665,300.903442 182.424164,301.436676 183.154022,302.603821 
	C185.207657,306.470856 188.542206,307.199799 192.500778,306.438171 
	C201.440445,304.718140 206.985092,295.759918 206.081345,284.400604 
	C205.742722,280.144348 204.084122,276.711304 199.401794,274.618561 
	C199.789520,273.653015 199.920288,272.419403 200.604691,271.763428 
	C207.472336,265.181152 206.239990,256.374481 197.381699,253.066162 
	C193.186920,251.499527 188.284653,251.011703 183.774582,251.272827 
	C174.057449,251.835464 164.462326,259.573120 162.466431,267.543884 
	C160.959976,273.559998 163.616943,276.901123 169.647797,276.427917 
	C168.301376,268.805511 170.001953,262.345245 177.739273,258.080200 
	C178.016342,258.130829 178.293411,258.181427 178.402679,259.037781 
	C177.005798,266.361572 175.608917,273.685333 173.934067,281.737762 
	C172.316452,289.514618 170.698837,297.291473 169.083130,305.059143 
	C178.472305,307.121033 179.769653,306.556885 181.601166,300.370209 
M306.858582,202.241821 
	C307.879211,196.369125 308.899841,190.496414 310.038910,183.942383 
	C307.500641,183.942383 305.387482,183.976166 303.275879,183.933380 
	C300.916382,183.885590 298.809021,183.719376 297.705078,186.731934 
	C294.963348,194.213776 291.881439,201.570953 288.470093,209.491302 
	C286.801392,213.379288 285.132721,217.267273 283.464020,221.155258 
	C282.993073,221.019913 282.522125,220.884552 282.051208,220.749191 
	C282.352661,217.168442 282.654114,213.587692 283.129272,209.171280 
	C283.603638,200.603088 284.078003,192.034897 284.551575,183.481506 
	C278.500916,181.691879 273.161621,182.580887 268.040222,184.844650 
	C260.748474,188.067780 255.700256,193.272385 254.678711,201.522751 
	C254.019485,206.846985 256.535858,209.244751 261.593536,208.416687 
	C261.506104,195.718536 263.636749,191.634857 272.116913,189.111038 
	C272.116913,189.111038 272.420837,189.401520 272.342346,190.136322 
	C269.581085,197.764206 266.819824,205.392105 263.625000,213.579239 
	C260.706879,221.467468 257.788788,229.355682 254.838562,237.330719 
	C259.453247,238.959183 261.812897,237.837143 263.091400,233.234940 
	C264.991638,226.394913 267.561188,219.740845 270.188385,212.391495 
	C270.861511,210.753387 271.534637,209.115280 272.482239,206.809128 
	C272.711761,208.371490 272.830048,209.176636 272.620178,210.724106 
	C272.620178,219.659683 272.620178,228.595276 272.620178,238.094986 
	C274.368500,238.094986 276.370697,238.372665 278.250977,238.012955 
	C279.959900,237.686050 282.493835,237.083817 283.017059,235.884430 
	C286.668732,227.513901 289.891998,218.956467 293.685516,210.018219 
	C294.098114,209.393372 294.510712,208.768509 295.024200,208.990860 
	C293.801392,218.488907 292.578613,227.986969 291.319183,237.769562 
	C294.818848,237.769562 298.031342,237.769562 301.641479,237.769562 
	C303.052490,227.686066 304.429077,217.848679 305.958832,207.498138 
	C305.938904,207.320740 305.919006,207.143341 306.140411,206.330750 
	C306.286804,205.228455 306.433197,204.126175 306.858582,202.241821 
M371.893951,283.584930 
	C374.596771,282.315063 377.391724,281.114746 376.780182,276.934479 
	C375.222748,277.811066 373.869202,278.572937 372.334076,279.436981 
	C371.927765,278.525787 371.512756,277.817444 371.286499,277.053253 
	C369.097931,269.660614 365.349243,267.476379 357.953705,269.324829 
	C349.514374,271.434143 343.153412,280.649658 342.750458,291.623505 
	C342.688293,297.582733 343.579010,303.359863 350.113708,305.436218 
	C356.559814,307.484467 361.746826,304.525330 365.958710,299.633057 
	C369.831451,295.134705 371.560120,289.900421 371.893951,283.584930 
M50.639099,266.849457 
	C55.181953,274.502167 61.113941,280.773468 69.302979,285.743439 
	C77.539146,288.688507 85.562134,292.783478 94.052467,294.357635 
	C117.186020,298.646637 145.113571,283.138214 154.620865,261.568390 
	C160.320435,249.185165 162.539993,236.399628 159.100449,222.161652 
	C156.743851,213.059937 153.902145,204.215012 146.122742,197.216217 
	C145.473831,196.278778 144.954086,195.210602 144.157043,194.423111 
	C126.443069,176.922180 105.524330,171.579819 81.849243,179.109955 
	C59.541630,186.205124 42.834778,207.203964 41.591736,228.706360 
	C40.382816,242.163147 42.758045,254.780441 50.639099,266.849457 
M230.563980,303.363098 
	C230.563980,303.363098 230.544693,303.408844 230.879745,304.077911 
	C235.971527,307.533325 240.157944,306.561707 246.718796,300.401917 
	C253.579895,307.926300 257.782745,307.922028 272.973358,300.259735 
	C272.867767,302.106384 272.769623,303.822571 272.655670,305.815948 
	C274.188385,305.815948 275.361298,305.649139 276.470367,305.844513 
	C281.556183,306.740356 284.170410,304.978485 284.423004,299.518494 
	C284.574799,296.237457 285.221741,292.822937 286.464722,289.805603 
	C287.251495,287.895691 289.508545,285.351379 291.170624,285.302917 
	C294.525269,285.205139 294.345978,288.404755 294.054321,290.955444 
	C293.828186,292.933014 293.294342,294.883514 293.170380,296.863159 
	C292.827393,302.342316 295.052490,305.495941 299.420929,305.983856 
	C304.381622,306.537933 307.405792,303.997528 308.384125,298.209747 
	C304.108795,299.019287 303.556976,296.674561 303.996307,293.219269 
	C305.237091,283.460602 304.886932,282.824554 296.663544,278.354065 
	C300.257660,275.308472 303.730438,272.365692 307.258209,269.376312 
	C298.137939,266.582825 294.982300,275.206238 289.121948,278.884827 
	C288.967072,277.969086 288.885681,277.487946 289.053467,276.247986 
	C290.516296,269.012878 291.979126,261.777740 293.569427,253.911972 
	C289.311340,254.434906 286.073364,254.832550 282.504303,255.270859 
	C281.299072,261.938690 280.121368,268.454193 278.536835,275.594055 
	C277.724243,279.316498 276.599640,283.003571 276.172516,286.769745 
	C275.537354,292.370667 272.257843,295.969208 267.606537,298.116211 
	C265.155457,299.247620 261.237152,300.021240 259.394592,298.808746 
	C257.750916,297.727112 257.976471,293.703339 257.535065,290.952545 
	C257.383728,290.009460 257.710327,288.989685 258.108856,287.309723 
	C259.292816,283.857483 260.136780,280.227600 261.807831,277.029938 
	C262.612152,275.490845 264.976440,274.767029 266.634308,273.674011 
	C267.140686,275.260712 267.719208,276.829437 268.121429,278.442108 
	C268.308533,279.192169 268.153412,280.027557 268.153412,280.860046 
	C273.087280,280.226624 274.930023,277.629944 273.565094,273.532227 
	C272.289703,269.703217 269.138702,268.819672 265.642059,268.721497 
	C256.369110,268.461151 248.391846,276.793549 246.731384,288.725067 
	C246.552490,290.521454 246.901733,292.631958 246.065704,294.037476 
	C244.930496,295.946045 242.888458,297.315216 241.235352,298.915741 
	C240.414139,297.280762 239.592926,295.645782 239.015930,293.270660 
	C239.745468,289.178619 240.475006,285.086609 241.525452,280.324951 
	C242.355453,276.800720 243.185471,273.276489 244.107086,269.363251 
	C239.155838,269.363251 234.612732,269.841339 230.217911,269.238495 
	C225.076721,268.533295 220.629013,269.266449 216.788330,272.747528 
	C209.589035,279.272766 206.850479,287.429962 208.094849,297.734680 
	C210.883209,306.454620 218.297485,308.700043 225.391220,303.042236 
	C226.486191,302.168915 227.883789,301.674988 229.138885,301.596619 
	C229.607193,302.170502 230.075500,302.744385 230.563980,303.363098 
M227.345779,212.297577 
	C229.220978,203.805649 231.096161,195.313721 233.038803,186.516373 
	C229.056061,186.516373 225.806580,186.516373 222.121124,186.516373 
	C220.389206,195.796982 218.691147,204.896225 216.590775,214.630646 
	C215.697144,219.696030 214.268219,224.747574 214.136932,229.832642 
	C214.071823,232.354843 215.797913,236.281464 217.781723,237.159531 
	C220.344101,238.293640 224.054810,237.352051 227.112686,236.631912 
	C228.672653,236.264511 229.886765,234.428665 231.257217,233.256577 
	C231.132477,233.762848 231.007736,234.269135 230.882996,234.775406 
	C233.788406,235.965576 236.661148,238.022247 239.607254,238.133347 
	C243.561844,238.282486 246.153839,235.495483 246.969879,230.840637 
	C241.073166,231.822311 241.749619,228.552277 242.569962,224.801178 
	C243.706650,219.603668 244.496170,214.330231 245.804977,208.470825 
	C247.379822,200.894058 248.954681,193.317291 250.602982,185.387161 
	C247.336136,185.656204 244.666260,185.622589 242.136398,186.201187 
	C241.024261,186.455536 239.591629,187.818802 239.342468,188.914597 
	C238.055450,194.574615 237.104599,200.311066 235.651291,206.665237 
	C234.736710,211.039047 233.838226,215.416290 232.901428,219.785339 
	C232.346359,222.374039 232.249924,225.254135 230.973022,227.432007 
	C230.005692,229.081848 227.498367,229.828796 225.676331,230.977524 
	C225.347244,229.209320 224.568298,227.385788 224.777618,225.683807 
	C225.301437,221.425079 226.273331,217.221451 227.345779,212.297577 
M179.895950,208.885880 
	C179.895950,208.885880 180.232361,209.218124 180.090622,209.909073 
	C179.070038,212.276642 178.049438,214.644211 176.552917,217.517609 
	C174.545349,223.304214 172.132050,228.987976 170.632675,234.903397 
	C168.748810,242.335678 172.721756,246.814407 179.856491,246.923569 
	C180.348083,242.144913 180.447571,237.355194 181.417725,232.748856 
	C182.541306,227.414062 184.430450,222.240494 186.432846,216.464569 
	C189.721405,208.071533 189.721680,208.070801 198.337112,211.317795 
	C198.799637,211.492096 199.251007,211.695953 199.534393,212.749420 
	C197.917389,220.978836 196.300385,229.208237 194.556152,238.085129 
	C197.962448,238.085129 200.606186,238.282654 203.192245,237.982727 
	C204.154831,237.871078 205.583847,236.726212 205.778214,235.830704 
	C207.640976,227.247803 209.284851,218.617386 211.273514,209.289551 
	C213.205215,200.806229 215.136917,192.322891 217.107162,183.670273 
	C210.528366,182.036835 204.845261,182.608597 200.357666,186.467682 
	C195.240463,190.868179 190.945099,196.211380 186.060272,200.903030 
	C184.588699,202.316391 182.433838,203.218765 180.432007,203.837982 
	C176.224838,205.139389 171.481628,205.363205 167.821930,207.504868 
	C165.968338,208.589600 165.189194,212.985519 165.530548,215.681015 
	C165.685364,216.903503 169.746582,217.631302 172.968018,218.971313 
	C172.360458,212.363998 174.055450,208.908432 179.895950,208.885880 
M423.530334,213.595840 
	C423.337280,214.386169 423.176361,215.186005 422.945801,215.965240 
	C421.682129,220.235947 420.614838,224.586365 418.977173,228.709641 
	C418.565460,229.746109 416.306335,230.048813 414.896179,230.688721 
	C414.427856,229.245285 413.584961,227.803268 413.579498,226.358063 
	C413.571442,224.222076 414.158478,222.083817 414.807526,219.336975 
	C416.081543,213.532776 417.355530,207.728577 418.772736,201.271957 
	C415.487610,201.271957 412.671814,201.038528 409.930908,201.389740 
	C408.872192,201.525406 407.360321,202.842712 407.121765,203.869522 
	C405.883606,209.199310 404.990051,214.609131 403.601685,220.583557 
	C401.815826,223.450363 400.625275,227.168732 398.079468,228.948380 
	C395.447479,230.788284 391.395996,231.523026 388.183746,231.096680 
	C387.085052,230.950851 386.646973,225.827667 386.695099,222.845734 
	C389.951019,221.692200 393.492188,221.016830 396.401031,219.281494 
	C401.774689,216.075699 404.048157,209.009567 401.717468,204.652435 
	C399.645325,200.778671 393.041290,199.478683 387.306000,202.363144 
	C384.572784,203.737762 381.364349,205.684906 380.142883,208.224747 
	C377.767029,213.165039 376.640656,218.706207 374.693481,224.658340 
	C373.501282,226.745728 372.484894,228.982468 370.955322,230.783310 
	C370.678833,231.108810 368.295227,229.644562 367.054474,228.243271 
	C368.036804,223.161575 369.019135,218.079880 370.032379,212.198196 
	C370.035767,211.365616 369.982391,210.528275 370.051483,209.701187 
	C370.597015,203.168839 367.091614,200.134933 360.742737,201.781631 
	C358.994049,202.235184 357.337341,203.043350 355.638428,203.688797 
	C355.683319,203.201096 355.728210,202.713379 355.773102,202.225677 
	C352.532074,201.925110 349.246796,201.207428 346.073364,201.544159 
	C344.920990,201.666412 343.548737,204.181351 343.128235,205.822739 
	C342.206604,209.420258 341.424377,212.728745 336.580597,211.953262 
	C333.365570,199.779968 323.644745,197.214005 314.485901,206.107513 
	C309.161865,211.277313 306.957062,217.690369 306.989136,225.034973 
	C307.012604,230.407120 308.434021,234.986084 313.664124,237.407074 
	C318.273132,239.540558 325.410095,238.417679 328.707489,233.914093 
	C331.840363,229.635208 334.096008,224.479324 335.669220,219.379547 
	C336.643097,216.222595 337.571869,214.932739 340.777283,215.333282 
	C340.502167,217.753403 340.260376,219.880554 339.566071,222.631866 
	C338.615601,227.584290 337.665161,232.536728 336.610138,238.034134 
	C339.046173,238.034134 340.711121,237.835526 342.311035,238.073639 
	C346.164764,238.647202 348.072937,237.406952 348.420441,233.243622 
	C348.759308,229.184067 349.859070,225.188034 350.919159,220.521500 
	C351.461212,218.267685 351.606750,215.803543 352.658722,213.820190 
	C353.676117,211.902008 355.626953,210.478912 357.167816,208.838379 
	C358.362335,210.555984 359.556824,212.273605 360.442108,214.650040 
	C359.604675,218.420578 358.767212,222.191116 357.583344,226.631332 
	C356.961639,230.914810 356.801361,235.303970 361.324768,237.524323 
	C367.212463,240.414352 371.378021,236.559692 375.471832,232.759811 
	C378.741882,237.500900 383.367035,239.567169 388.540100,238.120377 
	C393.281067,236.794418 397.641235,234.107010 401.498108,232.328873 
	C403.563416,234.093185 405.802429,236.005890 408.627136,238.259201 
	C408.939850,238.812820 409.658600,239.554291 409.502747,239.891068 
	C407.871307,243.416779 406.099731,246.877640 404.033325,251.026199 
	C397.244934,250.637863 389.852112,252.513184 383.714874,258.111786 
	C380.002960,261.497894 377.596375,265.579071 377.609009,270.731354 
	C377.620514,275.422913 379.844147,277.179016 384.840454,276.710297 
	C384.518921,263.827454 387.535889,258.378815 396.102539,257.123749 
	C393.687164,263.549164 391.346130,269.776764 388.569855,276.541290 
	C384.719482,286.039093 380.869110,295.536896 376.989014,305.108032 
	C381.712433,306.708618 383.932465,305.370422 385.400452,300.884460 
	C388.003998,292.928284 391.352020,285.215698 394.843140,276.231323 
	C394.843140,286.913940 394.843140,296.226196 394.843140,305.507843 
	C404.636047,306.532776 404.613922,306.522980 408.491516,297.772308 
	C411.349152,291.323364 414.274048,284.904266 417.168976,278.471863 
	C417.565247,278.586853 417.961487,278.701843 418.357758,278.816833 
	C417.107208,287.726379 415.856628,296.635925 414.620422,305.443298 
	C418.577362,305.443298 421.816040,305.443298 425.288391,305.443298 
	C427.442230,291.336243 429.545929,277.557556 431.903534,263.166412 
	C432.547760,259.667267 433.191986,256.168152 433.887604,252.389923 
	C430.561127,252.153091 427.886078,251.962646 425.795837,251.813828 
	C427.024231,246.926346 428.138855,242.491531 429.666382,237.445587 
	C430.878204,230.956635 432.090027,224.467667 433.655884,217.349426 
	C434.742371,212.226410 435.828827,207.103378 436.915161,201.981064 
	C426.702881,199.991547 426.288849,200.243271 424.348114,209.545319 
	C424.113739,210.668655 424.092010,211.836380 423.530334,213.595840 
M443.119873,297.091614 
	C443.119873,295.158508 443.119873,293.225403 443.119873,291.370056 
	C452.233459,289.512421 457.165253,286.210175 459.281128,280.716522 
	C462.050537,273.525909 458.680054,268.329102 451.093445,269.141907 
	C447.356293,269.542328 443.171814,271.112701 440.330811,273.507385 
	C432.507324,280.101898 430.670380,289.207245 432.213409,298.936981 
	C433.090576,304.468201 438.065948,306.980743 445.141022,306.199890 
	C451.207092,305.530365 454.555420,302.096985 454.657715,296.439972 
	C451.117676,298.281250 447.790405,301.759460 443.119873,297.091614 
z"/>
<path fill="#FEC34C" opacity="1.000000" stroke="none" 
	d="
M41.960209,227.984253 
	C42.834778,207.203964 59.541630,186.205124 81.849243,179.109955 
	C105.524330,171.579819 126.443069,176.922180 144.157043,194.423111 
	C144.954086,195.210602 145.473831,196.278778 145.780182,197.624146 
	C142.715302,198.814209 139.992950,199.596375 137.015686,200.204575 
	C117.416969,182.204346 91.345551,180.058289 71.232010,194.828156 
	C59.369896,203.538803 52.863316,215.489563 50.510201,230.001434 
	C47.415813,229.209702 43.749725,232.385025 41.960209,227.984253 
z"/>
<path fill="#FC7449" opacity="1.000000" stroke="none" 
	d="
M431.649658,263.778839 
	C429.545929,277.557556 427.442230,291.336243 425.288391,305.443298 
	C421.816040,305.443298 418.577362,305.443298 414.620422,305.443298 
	C415.856628,296.635925 417.107208,287.726379 418.357758,278.816833 
	C417.961487,278.701843 417.565247,278.586853 417.168976,278.471863 
	C414.274048,284.904266 411.349152,291.323364 408.491516,297.772308 
	C404.613922,306.522980 404.636047,306.532776 394.843140,305.507843 
	C394.843140,296.226196 394.843140,286.913940 394.843140,276.231323 
	C391.352020,285.215698 388.003998,292.928284 385.400452,300.884460 
	C383.932465,305.370422 381.712433,306.708618 376.989014,305.108032 
	C380.869110,295.536896 384.719482,286.039093 389.045135,276.470459 
	C390.471527,276.909668 391.787292,278.099060 392.313171,277.816803 
	C395.208252,276.262939 397.883087,274.305450 400.686615,272.572388 
	C403.148834,271.050262 405.917938,269.922211 405.107086,266.041779 
	C404.926605,265.178223 406.123047,264.026978 406.752502,263.444489 
	C406.819519,271.952087 406.819519,280.023346 406.819519,288.113983 
	C409.340027,282.743225 411.905853,277.275848 414.850983,271.871216 
	C416.589203,271.957153 418.260437,272.504333 419.252930,271.912781 
	C423.494385,269.384674 427.535461,266.520447 431.649658,263.778839 
M418.338074,274.624054 
	C418.414062,274.882324 418.490082,275.140594 418.566071,275.398865 
	C418.851990,275.118805 419.137909,274.838776 419.423828,274.558716 
	C419.167847,274.476196 418.911835,274.393707 418.338074,274.624054 
z"/>
<path fill="#FC8549" opacity="1.000000" stroke="none" 
	d="
M257.818604,288.004944 
	C257.710327,288.989685 257.383728,290.009460 257.535065,290.952545 
	C257.976471,293.703339 257.750916,297.727112 259.394592,298.808746 
	C261.237152,300.021240 265.155457,299.247620 267.606537,298.116211 
	C272.257843,295.969208 275.537354,292.370667 276.172516,286.769745 
	C276.599640,283.003571 277.724243,279.316498 279.022949,275.514801 
	C280.055359,277.934998 280.825409,279.833618 284.052063,278.204315 
	C285.474945,277.485840 287.210632,277.386932 288.804321,277.006775 
	C288.885681,277.487946 288.967072,277.969086 289.121948,278.884827 
	C294.982300,275.206238 298.137939,266.582825 307.258209,269.376312 
	C303.730438,272.365692 300.257660,275.308472 296.663544,278.354065 
	C304.886932,282.824554 305.237091,283.460602 303.996307,293.219269 
	C303.556976,296.674561 304.108795,299.019287 308.384125,298.209747 
	C307.405792,303.997528 304.381622,306.537933 299.420929,305.983856 
	C295.052490,305.495941 292.827393,302.342316 293.170380,296.863159 
	C293.294342,294.883514 293.828186,292.933014 294.054321,290.955444 
	C294.345978,288.404755 294.525269,285.205139 291.170624,285.302917 
	C289.508545,285.351379 287.251495,287.895691 286.464722,289.805603 
	C285.221741,292.822937 284.574799,296.237457 284.423004,299.518494 
	C284.170410,304.978485 281.556183,306.740356 276.470367,305.844513 
	C275.361298,305.649139 274.188385,305.815948 272.655670,305.815948 
	C272.769623,303.822571 272.867767,302.106384 272.973358,300.259735 
	C257.782745,307.922028 253.579895,307.926300 246.718796,300.401917 
	C240.157944,306.561707 235.971527,307.533325 231.108246,303.630341 
	C235.119690,302.258820 238.819458,301.322876 237.138519,295.926636 
	C237.005341,295.499084 238.196182,294.659119 238.771729,294.010803 
	C239.592926,295.645782 240.414139,297.280762 241.235352,298.915741 
	C242.888458,297.315216 244.930496,295.946045 246.065704,294.037476 
	C246.901733,292.631958 246.552490,290.521454 247.164581,288.633606 
	C247.934525,289.944489 248.271271,291.346832 248.955948,294.198059 
	C252.344727,291.830048 255.081665,289.917511 257.818604,288.004944 
z"/>
<path fill="#FDA44A" opacity="1.000000" stroke="none" 
	d="
M360.751343,213.991211 
	C359.556824,212.273605 358.362335,210.555984 357.167786,208.838379 
	C355.626953,210.478912 353.676117,211.902008 352.658722,213.820190 
	C351.606750,215.803543 351.461212,218.267685 350.300537,220.798660 
	C346.460785,221.386459 343.239655,221.697083 340.018555,222.007706 
	C340.260376,219.880554 340.502167,217.753403 340.777283,215.333282 
	C337.571869,214.932739 336.643097,216.222595 335.669220,219.379547 
	C334.096008,224.479324 331.840363,229.635208 328.707489,233.914093 
	C325.410095,238.417679 318.273132,239.540558 313.664124,237.407074 
	C308.434021,234.986084 307.012604,230.407120 306.989136,225.034973 
	C306.957062,217.690369 309.161865,211.277313 314.485901,206.107513 
	C323.644745,197.214005 333.365570,199.779968 336.580597,211.953262 
	C341.424377,212.728745 342.206604,209.420258 343.128235,205.822739 
	C343.548737,204.181351 344.920990,201.666412 346.073364,201.544159 
	C349.246796,201.207428 352.532074,201.925110 355.773102,202.225677 
	C355.728210,202.713379 355.683319,203.201096 355.638428,203.688797 
	C357.337341,203.043350 358.994049,202.235184 360.742737,201.781631 
	C367.091614,200.134933 370.597015,203.168839 370.051483,209.701187 
	C369.982391,210.528275 370.035767,211.365616 369.642517,212.760468 
	C366.418884,213.545563 363.585114,213.768387 360.751343,213.991211 
M327.578552,205.963943 
	C325.705658,207.426773 322.947968,208.515320 322.138794,210.428131 
	C320.292816,214.791885 318.968567,219.499390 318.317505,224.190094 
	C318.022522,226.315414 319.833435,228.733047 320.688995,231.018097 
	C322.831696,229.502808 326.327576,228.359222 326.864960,226.402954 
	C328.519653,220.379211 329.086243,214.050568 329.925354,207.820160 
	C329.992737,207.319794 328.910553,206.664612 327.578552,205.963943 
z"/>
<path fill="#FC8048" opacity="1.000000" stroke="none" 
	d="
M431.776611,263.472626 
	C427.535461,266.520447 423.494385,269.384674 419.252930,271.912781 
	C418.260437,272.504333 416.589203,271.957153 414.971130,271.516113 
	C416.874054,266.012329 419.036072,260.926392 420.968994,256.379395 
	C416.188995,255.975632 411.776794,255.602936 407.266083,255.221924 
	C407.102966,257.409332 406.894257,260.208740 406.685516,263.008179 
	C406.123047,264.026978 404.926605,265.178223 405.107086,266.041779 
	C405.917938,269.922211 403.148834,271.050262 400.686615,272.572388 
	C397.883087,274.305450 395.208252,276.262939 392.313171,277.816803 
	C391.787292,278.099060 390.471527,276.909668 389.262756,276.202026 
	C391.346130,269.776764 393.687164,263.549164 396.102539,257.123749 
	C387.535889,258.378815 384.518921,263.827454 384.840454,276.710297 
	C379.844147,277.179016 377.620514,275.422913 377.609009,270.731354 
	C377.596375,265.579071 380.002960,261.497894 383.714874,258.111786 
	C389.852112,252.513184 397.244934,250.637863 404.033325,251.026199 
	C406.099731,246.877640 407.871307,243.416779 409.502747,239.891068 
	C409.658600,239.554291 408.939850,238.812820 408.568420,237.829514 
	C415.398102,238.446198 422.403687,235.791702 429.253479,238.056702 
	C428.138855,242.491531 427.024231,246.926346 425.795837,251.813828 
	C427.886078,251.962646 430.561127,252.153091 433.887604,252.389923 
	C433.191986,256.168152 432.547760,259.667267 431.776611,263.472626 
M416.918365,246.262344 
	C417.223297,244.580231 417.528198,242.898132 417.833099,241.216019 
	C417.298950,240.866104 416.764771,240.516190 416.230621,240.166290 
	C414.217529,242.445892 412.120148,244.662354 410.303101,247.088760 
	C410.087341,247.376923 411.743988,249.664886 411.955322,249.580460 
	C413.610718,248.919159 415.125153,247.904938 416.918365,246.262344 
z"/>
<path fill="#FDA44A" opacity="1.000000" stroke="none" 
	d="
M154.104080,262.025513 
	C145.113571,283.138214 117.186020,298.646637 94.052467,294.357635 
	C85.562134,292.783478 77.539146,288.688507 69.249313,285.151520 
	C71.181671,282.553955 73.167686,280.548309 75.497856,278.679993 
	C89.312057,286.048981 103.296638,287.363342 117.796234,282.392670 
	C128.049042,278.877808 136.005585,272.247559 143.071030,263.901947 
	C147.033264,263.299774 150.568680,262.662628 154.104080,262.025513 
z"/>
<path fill="#FC9146" opacity="1.000000" stroke="none" 
	d="
M429.459930,237.751144 
	C422.403687,235.791702 415.398102,238.446198 408.275604,237.659210 
	C405.802429,236.005890 403.563416,234.093185 401.498108,232.328873 
	C397.641235,234.107010 393.281067,236.794418 388.540100,238.120377 
	C383.367035,239.567169 378.741882,237.500900 375.471832,232.759811 
	C371.378021,236.559692 367.212463,240.414352 361.324768,237.524323 
	C356.801361,235.303970 356.961639,230.914810 358.046509,226.535492 
	C359.018097,229.341293 360.400269,230.810745 363.553925,229.690414 
	C364.611572,229.314697 365.771332,229.226303 366.884399,229.006577 
	C368.295227,229.644562 370.678833,231.108810 370.955322,230.783310 
	C372.484894,228.982468 373.501282,226.745728 375.151764,224.552734 
	C379.628662,228.068298 382.791290,225.687622 385.907074,222.978561 
	C386.646973,225.827667 387.085052,230.950851 388.183746,231.096680 
	C391.395996,231.523026 395.447479,230.788284 398.079468,228.948380 
	C400.625275,227.168732 401.815826,223.450363 404.252350,220.288269 
	C408.099396,219.977493 411.295776,219.962021 414.492157,219.946533 
	C414.158478,222.083817 413.571442,224.222076 413.579498,226.358063 
	C413.584961,227.803268 414.427856,229.245285 414.896179,230.688721 
	C416.306335,230.048813 418.565460,229.746109 418.977173,228.709641 
	C420.614838,224.586365 421.682129,220.235947 422.945801,215.965240 
	C423.176361,215.186005 423.337280,214.386169 424.035767,213.532532 
	C425.492432,218.797531 430.176270,216.874496 433.301819,217.978714 
	C432.090027,224.467667 430.878204,230.956635 429.459930,237.751144 
z"/>
<path fill="#FEBC4D" opacity="1.000000" stroke="none" 
	d="
M179.578415,208.535538 
	C174.055450,208.908432 172.360458,212.363998 172.968018,218.971313 
	C169.746582,217.631302 165.685364,216.903503 165.530548,215.681015 
	C165.189194,212.985519 165.968338,208.589600 167.821930,207.504868 
	C171.481628,205.363205 176.224838,205.139389 180.432007,203.837982 
	C182.433838,203.218765 184.588699,202.316391 186.060272,200.903030 
	C190.945099,196.211380 195.240463,190.868179 200.357666,186.467682 
	C204.845261,182.608597 210.528366,182.036835 217.107162,183.670273 
	C215.136917,192.322891 213.205215,200.806229 210.721954,209.644043 
	C206.682800,210.627731 203.195175,211.256912 199.707565,211.886078 
	C199.251007,211.695953 198.799637,211.492096 198.337112,211.317795 
	C189.721680,208.070801 189.721405,208.071533 185.805420,216.730972 
	C182.461609,217.002182 179.745224,217.006973 177.028839,217.011780 
	C178.049438,214.644211 179.070038,212.276642 180.337677,209.428619 
	C180.249283,208.810638 179.913849,208.673096 179.578415,208.535538 
M194.630981,205.859360 
	C196.583481,206.521881 198.535965,207.184402 200.764908,207.940735 
	C202.242447,201.149216 203.605972,194.881714 205.029037,188.340607 
	C200.343262,190.456604 193.289825,198.365723 192.285431,202.761230 
	C192.108795,203.534241 193.333313,204.627411 194.630981,205.859360 
z"/>
<path fill="#FDA44A" opacity="1.000000" stroke="none" 
	d="
M176.903244,257.957855 
	C170.001953,262.345245 168.301376,268.805511 169.647797,276.427917 
	C163.616943,276.901123 160.959976,273.559998 162.466431,267.543884 
	C164.462326,259.573120 174.057449,251.835464 183.774582,251.272827 
	C188.284653,251.011703 193.186920,251.499527 197.381699,253.066162 
	C206.239990,256.374481 207.472336,265.181152 200.604691,271.763428 
	C199.920288,272.419403 199.789520,273.653015 199.231644,274.823853 
	C196.802231,276.145508 194.542953,277.261810 191.925110,278.294922 
	C189.434402,278.472473 187.302231,278.733185 184.743835,278.993225 
	C180.949066,279.664734 177.580551,280.336914 174.212036,281.009094 
	C175.608917,273.685333 177.005798,266.361572 178.887512,258.522705 
	C182.597137,258.007660 185.821945,258.007660 189.429855,258.007660 
	C188.458817,263.680603 187.607925,268.651642 186.757034,273.622650 
	C187.175537,273.957489 187.594025,274.292328 188.012527,274.627167 
	C190.321930,272.789246 193.121414,271.321411 194.844162,269.040436 
	C199.136475,263.357239 197.149094,256.381622 190.976929,255.214874 
	C186.080551,254.289276 181.057266,254.313660 176.903244,257.957855 
z"/>
<path fill="#FDAE4A" opacity="1.000000" stroke="none" 
	d="
M245.434311,209.089310 
	C244.496170,214.330231 243.706650,219.603668 242.569962,224.801178 
	C241.749619,228.552277 241.073166,231.822311 246.969879,230.840637 
	C246.153839,235.495483 243.561844,238.282486 239.607254,238.133347 
	C236.661148,238.022247 233.788406,235.965576 230.882996,234.775406 
	C231.007736,234.269135 231.132477,233.762848 231.257217,233.256577 
	C229.886765,234.428665 228.672653,236.264511 227.112686,236.631912 
	C224.054810,237.352051 220.344101,238.293640 217.781723,237.159531 
	C215.797913,236.281464 214.071823,232.354843 214.136932,229.832642 
	C214.268219,224.747574 215.697144,219.696030 217.113983,214.447556 
	C220.779953,213.841553 223.922699,213.418640 227.065460,212.995728 
	C226.273331,217.221451 225.301437,221.425079 224.777618,225.683807 
	C224.568298,227.385788 225.347244,229.209320 225.676331,230.977539 
	C227.498367,229.828796 230.005692,229.081848 230.973022,227.432007 
	C232.249924,225.254135 232.346359,222.374039 232.901428,219.785339 
	C233.838226,215.416290 234.736710,211.039047 236.124222,206.590530 
	C238.447861,211.133850 242.533951,208.075729 245.434311,209.089310 
z"/>
<path fill="#FEB54B" opacity="1.000000" stroke="none" 
	d="
M272.948303,209.981766 
	C272.830048,209.176636 272.711761,208.371490 272.482239,206.809128 
	C271.534637,209.115280 270.861511,210.753387 269.711792,212.749786 
	C267.473297,215.217590 265.760223,214.455231 264.058594,213.020004 
	C266.819824,205.392105 269.581085,197.764206 272.516052,189.604233 
	C272.401001,188.984772 272.112183,188.897385 271.823395,188.810013 
	C263.636749,191.634857 261.506104,195.718536 261.593536,208.416687 
	C256.535858,209.244751 254.019485,206.846985 254.678711,201.522751 
	C255.700256,193.272385 260.748474,188.067780 268.040222,184.844650 
	C273.161621,182.580887 278.500916,181.691879 284.551575,183.481506 
	C284.078003,192.034897 283.603638,200.603088 282.648865,209.587128 
	C279.097015,209.153870 276.012970,213.777115 272.948303,209.981766 
z"/>
<path fill="#FC6D49" opacity="1.000000" stroke="none" 
	d="
M443.314026,297.490997 
	C447.790405,301.759460 451.117676,298.281250 454.657776,296.440613 
	C454.555420,302.096985 451.207092,305.530365 445.141022,306.199890 
	C438.065948,306.980743 433.090576,304.468201 432.213409,298.936981 
	C430.670380,289.207245 432.507324,280.101898 440.330811,273.507385 
	C443.171814,271.112701 447.356293,269.542328 451.093445,269.141907 
	C458.680054,268.329102 462.050537,273.525909 459.281128,280.716522 
	C457.165253,286.210175 452.233459,289.512421 443.119873,291.370056 
	C443.119873,293.225403 443.119873,295.158508 443.314026,297.490997 
M444.978943,287.355011 
	C450.000183,285.963776 453.798828,283.309509 454.075012,277.624268 
	C454.145233,276.178619 453.172882,274.682312 452.679535,273.209259 
	C451.150391,273.946991 448.833282,274.294952 448.239532,275.495331 
	C446.441620,279.130066 445.311554,283.095123 443.632172,287.070068 
	C443.833557,287.124115 444.034973,287.178131 444.978943,287.355011 
z"/>
<path fill="#FC8B49" opacity="1.000000" stroke="none" 
	d="
M331.041199,266.015900 
	C331.366241,263.555969 331.691254,261.096008 332.014984,258.646088 
	C321.968933,256.282410 317.019714,262.794281 318.337372,276.492615 
	C313.371094,276.880371 311.200378,275.145294 311.041382,270.424438 
	C310.813873,263.668640 313.751740,258.584595 319.472107,255.050934 
	C327.502075,250.090546 336.262054,250.545532 345.135254,251.434921 
	C350.670898,251.989761 356.238159,252.228867 361.868256,252.614960 
	C361.889374,260.478271 360.042267,261.223755 343.448975,258.845825 
	C342.757721,261.615143 342.050598,264.447998 340.779846,267.639435 
	C337.185516,267.209412 333.067871,271.451965 331.041199,266.015900 
z"/>
<path fill="#FC9548" opacity="1.000000" stroke="none" 
	d="
M208.145309,297.003265 
	C206.850479,287.429962 209.589035,279.272766 216.788330,272.747528 
	C220.629013,269.266449 225.076721,268.533295 230.217911,269.238495 
	C234.612732,269.841339 239.155838,269.363251 244.107086,269.363251 
	C243.185471,273.276489 242.355453,276.800720 240.937973,280.660522 
	C237.071915,281.607178 233.793320,282.218262 230.608215,282.441040 
	C230.197662,279.491089 233.993240,275.503906 229.550323,274.683014 
	C227.485443,274.301514 223.748566,277.434753 222.425873,279.873138 
	C220.459503,283.498047 219.962250,287.919861 218.480560,292.007202 
	C214.796005,293.675659 211.470657,295.339478 208.145309,297.003265 
z"/>
<path fill="#FDA44A" opacity="1.000000" stroke="none" 
	d="
M272.784241,210.352936 
	C276.012970,213.777115 279.097015,209.153870 282.562012,210.004974 
	C282.654114,213.587692 282.352661,217.168442 282.051208,220.749191 
	C282.522125,220.884552 282.993073,221.019913 283.464020,221.155258 
	C285.132721,217.267273 286.801392,213.379288 289.110901,209.241821 
	C290.918640,209.481201 292.085571,209.970062 293.252502,210.458893 
	C289.891998,218.956467 286.668732,227.513901 283.017059,235.884430 
	C282.493835,237.083817 279.959900,237.686050 278.250977,238.012955 
	C276.370697,238.372665 274.368500,238.094986 272.620178,238.094986 
	C272.620178,228.595276 272.620178,219.659683 272.784241,210.352936 
z"/>
<path fill="#FC9F49" opacity="1.000000" stroke="none" 
	d="
M386.301086,222.912140 
	C382.791290,225.687622 379.628662,228.068298 375.303375,224.222809 
	C376.640656,218.706207 377.767029,213.165039 380.142883,208.224747 
	C381.364349,205.684906 384.572784,203.737762 387.306000,202.363144 
	C393.041290,199.478683 399.645325,200.778671 401.717468,204.652435 
	C404.048157,209.009567 401.774689,216.075699 396.401031,219.281494 
	C393.492188,221.016830 389.951019,221.692200 386.301086,222.912140 
M396.711700,207.012772 
	C394.958160,203.821548 392.581360,204.729965 391.301758,206.924805 
	C389.219055,210.497253 387.865234,214.494614 385.952698,218.889633 
	C393.403320,218.102951 395.802979,215.346527 396.711700,207.012772 
z"/>
<path fill="#FEB24A" opacity="1.000000" stroke="none" 
	d="
M154.362473,261.796936 
	C150.568680,262.662628 147.033264,263.299774 143.194229,263.562866 
	C144.531540,260.411835 146.678467,257.811188 147.719498,254.825027 
	C150.972733,245.493362 151.771988,235.817505 151.028564,225.990112 
	C153.980804,224.977615 156.532669,223.967804 159.084534,222.958008 
	C162.539993,236.399628 160.320435,249.185165 154.362473,261.796936 
z"/>
<path fill="#FC9548" opacity="1.000000" stroke="none" 
	d="
M192.283676,278.378113 
	C194.542953,277.261810 196.802231,276.145508 199.444885,275.036652 
	C204.084122,276.711304 205.742722,280.144348 206.081345,284.400604 
	C206.985092,295.759918 201.440445,304.718140 192.500778,306.438171 
	C188.542206,307.199799 185.207657,306.470856 183.011047,301.865326 
	C182.868057,299.799042 182.868057,298.471222 182.868057,296.693512 
	C184.840256,297.346649 186.030716,297.524597 186.985748,298.096039 
	C190.427246,300.155151 192.529404,298.701263 194.184662,295.634796 
	C197.383392,289.708893 196.705734,283.408386 192.283676,278.378113 
z"/>
<path fill="#FC8B49" opacity="1.000000" stroke="none" 
	d="
M230.514725,282.829346 
	C233.793320,282.218262 237.071915,281.607178 240.777512,280.995331 
	C240.475006,285.086609 239.745468,289.178619 238.893829,293.640747 
	C238.196182,294.659119 237.005341,295.499084 237.138519,295.926636 
	C238.819458,301.322876 235.119690,302.258820 230.940720,303.295807 
	C230.544693,303.408844 230.563980,303.363098 230.678223,303.015991 
	C230.242126,302.114471 229.691772,301.560059 229.141434,301.005615 
	C227.883789,301.674988 226.486191,302.168915 225.391220,303.042236 
	C218.297485,308.700043 210.883209,306.454620 208.120087,297.368958 
	C211.470657,295.339478 214.796005,293.675659 218.542938,292.400421 
	C219.850784,294.714417 220.737045,296.639893 221.623322,298.565338 
	C223.555435,297.250031 226.390762,296.350952 227.229080,294.531647 
	C228.903549,290.897797 229.483047,286.759399 230.514725,282.829346 
z"/>
<path fill="#FEB94B" opacity="1.000000" stroke="none" 
	d="
M41.775970,228.345306 
	C43.749725,232.385025 47.415813,229.209702 50.553520,230.463501 
	C50.023724,242.870026 53.283821,253.724518 59.039047,263.901733 
	C55.874184,264.704041 53.120605,265.437958 50.367031,266.171875 
	C42.758045,254.780441 40.382816,242.163147 41.775970,228.345306 
z"/>
<path fill="#FC8048" opacity="1.000000" stroke="none" 
	d="
M342.994141,290.997650 
	C343.153412,280.649658 349.514374,271.434143 357.953705,269.324829 
	C365.349243,267.476379 369.097931,269.660614 371.286499,277.053253 
	C371.512756,277.817444 371.927765,278.525787 372.334076,279.436981 
	C373.869202,278.572937 375.222748,277.811066 376.780182,276.934479 
	C377.391724,281.114746 374.596771,282.315063 371.182068,283.789795 
	C368.658081,283.993958 366.845978,283.993256 364.751282,283.743958 
	C364.440979,282.074554 364.390991,280.653778 364.391449,279.232971 
	C364.391968,277.578552 364.436615,275.924103 364.462097,274.269684 
	C362.626343,274.957275 359.808990,275.132904 359.134399,276.426178 
	C356.892578,280.723969 355.421051,285.423584 353.246887,290.067078 
	C349.557800,290.442566 346.275970,290.720093 342.994141,290.997650 
z"/>
<path fill="#FEB24A" opacity="1.000000" stroke="none" 
	d="
M293.469025,210.238556 
	C292.085571,209.970062 290.918640,209.481201 289.343933,208.985275 
	C291.881439,201.570953 294.963348,194.213776 297.705078,186.731934 
	C298.809021,183.719376 300.916382,183.885590 303.275879,183.933380 
	C305.387482,183.976166 307.500641,183.942383 310.038910,183.942383 
	C308.899841,190.496414 307.879211,196.369125 306.418945,202.716675 
	C305.952545,204.449677 305.925812,205.707825 305.899078,206.965958 
	C305.919006,207.143341 305.938904,207.320740 305.501160,207.810303 
	C301.670105,208.129517 298.296692,208.136581 294.923309,208.143661 
	C294.510712,208.768509 294.098114,209.393372 293.469025,210.238556 
z"/>
<path fill="#FDA44A" opacity="1.000000" stroke="none" 
	d="
M294.973755,208.567261 
	C298.296692,208.136581 301.670105,208.129517 305.424561,208.066864 
	C304.429077,217.848679 303.052490,227.686066 301.641479,237.769562 
	C298.031342,237.769562 294.818848,237.769562 291.319183,237.769562 
	C292.578613,227.986969 293.801392,218.488907 294.973755,208.567261 
z"/>
<path fill="#FC8B49" opacity="1.000000" stroke="none" 
	d="
M257.963745,287.657349 
	C255.081665,289.917511 252.344727,291.830048 248.955948,294.198059 
	C248.271271,291.346832 247.934525,289.944489 247.328873,288.287109 
	C248.391846,276.793549 256.369110,268.461151 265.642059,268.721497 
	C269.138702,268.819672 272.289703,269.703217 273.565094,273.532227 
	C274.930023,277.629944 273.087280,280.226624 268.153412,280.860046 
	C268.153412,280.027557 268.308533,279.192169 268.121429,278.442108 
	C267.719208,276.829437 267.140686,275.260712 266.634308,273.674011 
	C264.976440,274.767029 262.612152,275.490845 261.807831,277.029938 
	C260.136780,280.227600 259.292816,283.857483 257.963745,287.657349 
z"/>
<path fill="#FC7449" opacity="1.000000" stroke="none" 
	d="
M365.033875,283.992554 
	C366.845978,283.993256 368.658081,283.993958 370.934875,283.998962 
	C371.560120,289.900421 369.831451,295.134705 365.958710,299.633057 
	C361.746826,304.525330 356.559814,307.484467 350.113708,305.436218 
	C343.579010,303.359863 342.688293,297.582733 342.872314,291.310577 
	C346.275970,290.720093 349.557800,290.442566 353.240173,290.460571 
	C353.639160,291.584595 353.396362,292.509827 353.682373,293.222900 
	C354.466125,295.177063 355.472290,297.042053 356.390411,298.942322 
	C358.224457,297.740692 360.920288,296.943237 361.712921,295.253204 
	C363.355530,291.750854 363.986755,287.774200 365.033875,283.992554 
z"/>
<path fill="#FEB24A" opacity="1.000000" stroke="none" 
	d="
M199.620972,212.317749 
	C203.195175,211.256912 206.682800,210.627731 210.580948,209.999573 
	C209.284851,218.617386 207.640976,227.247803 205.778214,235.830704 
	C205.583847,236.726212 204.154831,237.871078 203.192245,237.982727 
	C200.606186,238.282654 197.962448,238.085129 194.556152,238.085129 
	C196.300385,229.208237 197.917389,220.978836 199.620972,212.317749 
z"/>
<path fill="#FEBC4D" opacity="1.000000" stroke="none" 
	d="
M227.205627,212.646652 
	C223.922699,213.418640 220.779953,213.841553 217.315140,214.129959 
	C218.691147,204.896225 220.389206,195.796982 222.121124,186.516373 
	C225.806580,186.516373 229.056061,186.516373 233.038803,186.516373 
	C231.096161,195.313721 229.220978,203.805649 227.205627,212.646652 
z"/>
<path fill="#FEB24A" opacity="1.000000" stroke="none" 
	d="
M176.790894,217.264694 
	C179.745224,217.006973 182.461609,217.002182 185.582611,216.997162 
	C184.430450,222.240494 182.541306,227.414062 181.417725,232.748856 
	C180.447571,237.355194 180.348083,242.144913 179.856491,246.923569 
	C172.721756,246.814407 168.748810,242.335678 170.632675,234.903397 
	C172.132050,228.987976 174.545349,223.304214 176.790894,217.264694 
z"/>
<path fill="#FC9548" opacity="1.000000" stroke="none" 
	d="
M174.073059,281.373413 
	C177.580551,280.336914 180.949066,279.664734 184.707489,279.407288 
	C183.796570,286.566650 182.495758,293.311279 181.194946,300.055878 
	C179.769653,306.556885 178.472305,307.121033 169.083130,305.059143 
	C170.698837,297.291473 172.316452,289.514618 174.073059,281.373413 
z"/>
<path fill="#FEBC4D" opacity="1.000000" stroke="none" 
	d="
M159.092499,222.559814 
	C156.532669,223.967804 153.980804,224.977615 150.877136,225.668503 
	C148.323547,215.797455 143.579681,207.678864 137.270615,200.378540 
	C139.992950,199.596375 142.715302,198.814209 145.850250,197.970856 
	C153.902145,204.215012 156.743851,213.059937 159.092499,222.559814 
z"/>
<path fill="#FC9146" opacity="1.000000" stroke="none" 
	d="
M288.928894,276.627380 
	C287.210632,277.386932 285.474945,277.485840 284.052063,278.204315 
	C280.825409,279.833618 280.055359,277.934998 279.226379,275.202637 
	C280.121368,268.454193 281.299072,261.938690 282.504303,255.270859 
	C286.073364,254.832550 289.311340,254.434906 293.569427,253.911972 
	C291.979126,261.777740 290.516296,269.012878 288.928894,276.627380 
z"/>
<path fill="#FEB94B" opacity="1.000000" stroke="none" 
	d="
M245.619644,208.780060 
	C242.533951,208.075729 238.447861,211.133850 236.316833,206.268341 
	C237.104599,200.311066 238.055450,194.574615 239.342468,188.914597 
	C239.591629,187.818802 241.024261,186.455536 242.136398,186.201187 
	C244.666260,185.622589 247.336136,185.656204 250.602982,185.387161 
	C248.954681,193.317291 247.379822,200.894058 245.619644,208.780060 
z"/>
<path fill="#FEFBF6" opacity="1.000000" stroke="none" 
	d="
M181.398056,300.213043 
	C182.495758,293.311279 183.796570,286.566650 185.133728,279.407959 
	C187.302231,278.733185 189.434402,278.472473 191.925110,278.294922 
	C196.705734,283.408386 197.383392,289.708893 194.184662,295.634796 
	C192.529404,298.701263 190.427246,300.155151 186.985748,298.096039 
	C186.030716,297.524597 184.840256,297.346649 182.868057,296.693512 
	C182.868057,298.471222 182.868057,299.799042 182.851868,301.548370 
	C182.424164,301.436676 182.012665,300.903442 181.398056,300.213043 
z"/>
<path fill="#FEAF47" opacity="1.000000" stroke="none" 
	d="
M50.503067,266.510681 
	C53.120605,265.437958 55.874184,264.704041 59.258904,264.142670 
	C64.977928,269.057709 70.065811,273.800171 75.153694,278.542664 
	C73.167686,280.548309 71.181671,282.553955 69.045029,284.883057 
	C61.113941,280.773468 55.181953,274.502167 50.503067,266.510681 
z"/>
<path fill="#FC8048" opacity="1.000000" stroke="none" 
	d="
M337.476440,285.971344 
	C336.228149,292.520508 334.979889,299.069702 333.708893,305.738068 
	C330.006683,305.738068 326.751465,305.738068 322.754303,305.738068 
	C324.082153,299.150146 325.342560,292.896729 327.256958,286.319641 
	C331.099457,285.987732 334.287933,285.979523 337.476440,285.971344 
z"/>
<path fill="#FC9F49" opacity="1.000000" stroke="none" 
	d="
M414.649841,219.641754 
	C411.295776,219.962021 408.099396,219.977493 404.439728,219.992035 
	C404.990051,214.609131 405.883606,209.199310 407.121765,203.869522 
	C407.360321,202.842712 408.872192,201.525406 409.930908,201.389740 
	C412.671814,201.038528 415.487610,201.271957 418.772736,201.271957 
	C417.355530,207.728577 416.081543,213.532776 414.649841,219.641754 
z"/>
<path fill="#FC8549" opacity="1.000000" stroke="none" 
	d="
M337.632568,285.653046 
	C334.287933,285.979523 331.099457,285.987732 327.448181,285.994659 
	C328.217865,279.554718 329.450348,273.116089 330.862000,266.346680 
	C333.067871,271.451965 337.185516,267.209412 340.637695,267.998444 
	C339.969025,273.777466 338.878876,279.556122 337.632568,285.653046 
z"/>
<path fill="#FC9548" opacity="1.000000" stroke="none" 
	d="
M339.792297,222.319794 
	C343.239655,221.697083 346.460785,221.386459 350.153320,221.119965 
	C349.859070,225.188034 348.759308,229.184067 348.420441,233.243622 
	C348.072937,237.406952 346.164764,238.647202 342.311035,238.073639 
	C340.711121,237.835526 339.046173,238.034134 336.610138,238.034134 
	C337.665161,232.536728 338.615601,227.584290 339.792297,222.319794 
z"/>
<path fill="#FC9F49" opacity="1.000000" stroke="none" 
	d="
M433.478851,217.664062 
	C430.176270,216.874496 425.492432,218.797531 424.256470,213.226364 
	C424.092010,211.836380 424.113739,210.668655 424.348114,209.545319 
	C426.288849,200.243271 426.702881,199.991547 436.915161,201.981064 
	C435.828827,207.103378 434.742371,212.226410 433.478851,217.664062 
z"/>
<path fill="#FDAE4A" opacity="1.000000" stroke="none" 
	d="
M263.841797,213.299622 
	C265.760223,214.455231 267.473297,215.217590 269.540558,213.057846 
	C267.561188,219.740845 264.991638,226.394913 263.091400,233.234940 
	C261.812897,237.837143 259.453247,238.959183 254.838562,237.330719 
	C257.788788,229.355682 260.706879,221.467468 263.841797,213.299622 
z"/>
<path fill="#FEFBF6" opacity="1.000000" stroke="none" 
	d="
M177.321259,258.019043 
	C181.057266,254.313660 186.080551,254.289276 190.976929,255.214874 
	C197.149094,256.381622 199.136475,263.357239 194.844162,269.040436 
	C193.121414,271.321411 190.321930,272.789246 188.012527,274.627167 
	C187.594025,274.292328 187.175537,273.957489 186.757034,273.622650 
	C187.607925,268.651642 188.458817,263.680603 189.429855,258.007660 
	C185.821945,258.007660 182.597137,258.007660 178.971405,258.119843 
	C178.293411,258.181427 178.016342,258.130829 177.321259,258.019043 
z"/>
<path fill="#FC9F49" opacity="1.000000" stroke="none" 
	d="
M366.969421,228.624924 
	C365.771332,229.226303 364.611572,229.314697 363.553925,229.690414 
	C360.400269,230.810745 359.018097,229.341293 358.219696,226.200653 
	C358.767212,222.191116 359.604675,218.420578 360.596741,214.320618 
	C363.585114,213.768387 366.418884,213.545563 369.627075,213.160461 
	C369.019135,218.079880 368.036804,223.161575 366.969421,228.624924 
z"/>
<path fill="#FDA44A" opacity="1.000000" stroke="none" 
	d="
M306.019745,206.648346 
	C305.925812,205.707825 305.952545,204.449677 306.279419,203.107712 
	C306.433197,204.126175 306.286804,205.228455 306.019745,206.648346 
z"/>
<path fill="#FC8549" opacity="1.000000" stroke="none" 
	d="
M229.140167,301.301117 
	C229.691772,301.560059 230.242126,302.114471 230.668121,302.993591 
	C230.075500,302.744385 229.607193,302.170502 229.140167,301.301117 
z"/>
<path fill="#FFFEFC" opacity="1.000000" stroke="none" 
	d="
M75.497856,278.679993 
	C70.065811,273.800171 64.977928,269.057709 59.670189,264.074280 
	C53.283821,253.724518 50.023724,242.870026 50.964172,230.464600 
	C52.863316,215.489563 59.369896,203.538803 71.232010,194.828156 
	C91.345551,180.058289 117.416969,182.204346 137.015686,200.204575 
	C143.579681,207.678864 148.323547,215.797455 150.476761,225.671204 
	C151.771988,235.817505 150.972733,245.493362 147.719498,254.825027 
	C146.678467,257.811188 144.531540,260.411835 142.767395,263.527924 
	C136.005585,272.247559 128.049042,278.877808 117.796234,282.392670 
	C103.296638,287.363342 89.312057,286.048981 75.497856,278.679993 
M84.316002,234.611313 
	C86.247414,235.860550 88.032005,237.744110 90.139656,238.231979 
	C95.112503,239.383072 96.795052,242.260788 95.989243,247.794113 
	C95.894043,249.344681 95.798843,250.895248 95.661575,253.131104 
	C91.213432,251.058044 87.382965,249.272858 83.332275,247.385040 
	C81.346077,250.449890 79.404724,253.445541 76.844391,257.396301 
	C83.511711,260.178619 89.524979,262.687988 95.740204,265.281647 
	C95.915283,266.976349 96.128365,269.038971 96.332291,271.013000 
	C99.736893,271.013000 102.665581,271.013000 106.003082,271.013000 
	C104.947411,265.957550 107.531265,264.526611 111.781227,263.252045 
	C121.652603,260.291626 125.841408,250.546585 121.661583,240.860977 
	C118.535919,238.139999 115.821236,234.272461 112.187172,232.969894 
	C106.888947,231.070816 105.039757,228.166687 105.770355,222.232101 
	C105.894951,220.936127 106.019547,219.640152 106.213562,217.622101 
	C109.628036,219.466827 112.625107,221.086044 116.000732,222.909790 
	C118.075302,220.153915 120.217133,217.308685 123.098412,213.481171 
	C117.096725,210.794708 111.778877,208.414352 106.101959,205.873260 
	C105.970360,204.485123 105.788979,202.571854 105.592262,200.496872 
	C102.380005,200.496872 99.474815,200.496872 95.974922,200.496872 
	C97.705948,206.315430 93.913368,207.403519 89.824997,209.027023 
	C78.833733,213.391693 76.088730,225.825882 84.316002,234.611313 
z"/>
<path fill="#FEFBF6" opacity="1.000000" stroke="none" 
	d="
M406.752502,263.444489 
	C406.894257,260.208740 407.102966,257.409332 407.266083,255.221924 
	C411.776794,255.602936 416.188995,255.975632 420.968994,256.379395 
	C419.036072,260.926392 416.874054,266.012329 414.591858,271.453369 
	C411.905853,277.275848 409.340027,282.743225 406.819519,288.113983 
	C406.819519,280.023346 406.819519,271.952087 406.752502,263.444489 
z"/>
<path fill="#FC8048" opacity="1.000000" stroke="none" 
	d="
M418.496948,274.467651 
	C418.911835,274.393707 419.167847,274.476196 419.423828,274.558716 
	C419.137909,274.838776 418.851990,275.118805 418.566071,275.398865 
	C418.490082,275.140594 418.414062,274.882324 418.496948,274.467651 
z"/>
<path fill="#FEFBF6" opacity="1.000000" stroke="none" 
	d="
M327.970581,206.022659 
	C328.910553,206.664612 329.992737,207.319794 329.925354,207.820160 
	C329.086243,214.050568 328.519653,220.379211 326.864960,226.402954 
	C326.327576,228.359222 322.831696,229.502808 320.689026,231.018097 
	C319.833435,228.733047 318.022522,226.315414 318.317505,224.190094 
	C318.968567,219.499390 320.292816,214.791885 322.138794,210.428131 
	C322.947968,208.515320 325.705658,207.426773 327.970581,206.022659 
z"/>
<path fill="#FEFBF6" opacity="1.000000" stroke="none" 
	d="
M416.800720,246.630951 
	C415.125153,247.904938 413.610718,248.919159 411.955322,249.580460 
	C411.743988,249.664886 410.087341,247.376923 410.303101,247.088760 
	C412.120148,244.662354 414.217529,242.445892 416.230621,240.166290 
	C416.764771,240.516190 417.298950,240.866104 417.833099,241.216019 
	C417.528198,242.898132 417.223297,244.580231 416.800720,246.630951 
z"/>
<path fill="#FEFBF6" opacity="1.000000" stroke="none" 
	d="
M194.270874,205.716034 
	C193.333313,204.627411 192.108795,203.534241 192.285431,202.761230 
	C193.289825,198.365723 200.343262,190.456604 205.029037,188.340607 
	C203.605972,194.881714 202.242447,201.149216 200.764908,207.940735 
	C198.535965,207.184402 196.583481,206.521881 194.270874,205.716034 
z"/>
<path fill="#FFFFFF" opacity="1.000000" stroke="none" 
	d="
M179.737183,208.710709 
	C179.913849,208.673096 180.249283,208.810638 180.408539,209.083160 
	C180.232361,209.218124 179.895950,208.885880 179.737183,208.710709 
z"/>
<path fill="#FFFFFF" opacity="1.000000" stroke="none" 
	d="
M271.970154,188.960526 
	C272.112183,188.897385 272.401001,188.984772 272.555298,189.236832 
	C272.420837,189.401520 272.116913,189.111038 271.970154,188.960526 
z"/>
<path fill="#FEFBF6" opacity="1.000000" stroke="none" 
	d="
M443.921204,286.931458 
	C445.311554,283.095123 446.441620,279.130066 448.239532,275.495331 
	C448.833282,274.294952 451.150391,273.946991 452.679535,273.209259 
	C453.172882,274.682312 454.145233,276.178619 454.075012,277.624268 
	C453.798828,283.309509 450.000183,285.963776 444.529297,287.217957 
	C444.079681,287.080872 443.921204,286.931458 443.921204,286.931458 
z"/>
<path fill="#FEFBF6" opacity="1.000000" stroke="none" 
	d="
M444.158020,287.156494 
	C444.034973,287.178131 443.833557,287.124115 443.776672,287.000763 
	C443.921204,286.931458 444.079681,287.080872 444.158020,287.156494 
z"/>
<path fill="#FEFBF6" opacity="1.000000" stroke="none" 
	d="
M230.608215,282.441040 
	C229.483047,286.759399 228.903549,290.897797 227.229080,294.531647 
	C226.390762,296.350952 223.555435,297.250031 221.623322,298.565338 
	C220.737045,296.639893 219.850784,294.714417 218.902130,292.395752 
	C219.962250,287.919861 220.459503,283.498047 222.425873,279.873138 
	C223.748566,277.434753 227.485443,274.301514 229.550323,274.683014 
	C233.993240,275.503906 230.197662,279.491089 230.608215,282.441040 
z"/>
<path fill="#FEFBF6" opacity="1.000000" stroke="none" 
	d="
M396.775024,207.394043 
	C395.802979,215.346527 393.403320,218.102951 385.952698,218.889633 
	C387.865234,214.494614 389.219055,210.497253 391.301758,206.924805 
	C392.581360,204.729965 394.958160,203.821548 396.775024,207.394043 
z"/>
<path fill="#FEFBF6" opacity="1.000000" stroke="none" 
	d="
M364.751282,283.743958 
	C363.986755,287.774200 363.355530,291.750854 361.712921,295.253204 
	C360.920288,296.943237 358.224457,297.740692 356.390411,298.942322 
	C355.472290,297.042053 354.466125,295.177063 353.682373,293.222900 
	C353.396362,292.509827 353.639160,291.584595 353.647430,290.362640 
	C355.421051,285.423584 356.892578,280.723969 359.134399,276.426178 
	C359.808990,275.132904 362.626343,274.957275 364.462097,274.269684 
	C364.436615,275.924103 364.391968,277.578552 364.391449,279.232971 
	C364.390991,280.653778 364.440979,282.074554 364.751282,283.743958 
z"/>
<path fill="#FEAF47" opacity="1.000000" stroke="none" 
	d="
M121.781044,241.566040 
	C125.841408,250.546585 121.652603,260.291626 111.781227,263.252045 
	C107.531265,264.526611 104.947411,265.957550 106.003082,271.013000 
	C102.665581,271.013000 99.736893,271.013000 96.332291,271.013000 
	C96.128365,269.038971 95.915283,266.976349 95.740204,265.281647 
	C89.524979,262.687988 83.511711,260.178619 76.844391,257.396301 
	C79.404724,253.445541 81.346077,250.449890 83.332275,247.385040 
	C87.382965,249.272858 91.213432,251.058044 95.661575,253.131104 
	C95.798843,250.895248 95.894043,249.344681 96.458969,247.397568 
	C100.059715,245.731979 103.190727,244.462952 106.195000,243.619888 
	C106.068260,247.165298 106.068260,250.284744 106.068260,253.456802 
	C112.403755,251.996307 113.076889,249.326584 109.067596,244.081116 
	C113.589958,243.190338 117.685501,242.378189 121.781044,241.566040 
z"/>
<path fill="#FEBC4D" opacity="1.000000" stroke="none" 
	d="
M83.994850,234.012299 
	C76.088730,225.825882 78.833733,213.391693 89.824997,209.027023 
	C93.913368,207.403519 97.705948,206.315430 95.974922,200.496872 
	C99.474815,200.496872 102.380005,200.496872 105.592262,200.496872 
	C105.788979,202.571854 105.970360,204.485123 106.101959,205.873260 
	C111.778877,208.414352 117.096725,210.794708 123.098412,213.481171 
	C120.217133,217.308685 118.075302,220.153915 116.000732,222.909790 
	C112.625107,221.086044 109.628036,219.466827 106.213562,217.622101 
	C106.019547,219.640152 105.894951,220.936127 105.341629,222.724609 
	C102.012833,223.813217 99.112755,224.409317 96.143845,224.577927 
	C96.075005,222.149292 96.075005,220.148163 96.075005,217.576141 
	C91.468750,219.494583 91.424683,222.179733 92.294022,225.654053 
	C91.002335,227.247910 89.837982,228.468857 88.627312,229.642029 
	C87.102943,231.119186 85.540733,232.557327 83.994850,234.012299 
z"/>
<path fill="#FEB54B" opacity="1.000000" stroke="none" 
	d="
M84.155426,234.311798 
	C85.540733,232.557327 87.102943,231.119186 88.627312,229.642029 
	C89.837982,228.468857 91.002335,227.247910 92.566986,225.885284 
	C94.328209,226.817368 95.755623,228.121506 96.212685,225.005417 
	C99.112755,224.409317 102.012833,223.813217 105.243408,223.118134 
	C105.039757,228.166687 106.888947,231.070816 112.187172,232.969894 
	C115.821236,234.272461 118.535919,238.139999 121.721313,241.213501 
	C117.685501,242.378189 113.589958,243.190338 108.815933,244.047760 
	C107.532211,243.793335 106.926971,243.493622 106.321732,243.193909 
	C103.190727,244.462952 100.059715,245.731979 96.521149,247.003250 
	C96.795052,242.260788 95.112503,239.383072 90.139656,238.231979 
	C88.032005,237.744110 86.247414,235.860550 84.155426,234.311798 
z"/>
<path fill="#FEFBF6" opacity="1.000000" stroke="none" 
	d="
M106.194992,243.619873 
	C106.926971,243.493622 107.532211,243.793335 108.389114,244.126389 
	C113.076889,249.326584 112.403755,251.996307 106.068260,253.456802 
	C106.068260,250.284744 106.068260,247.165298 106.194992,243.619873 
z"/>
<path fill="#FFFEFC" opacity="1.000000" stroke="none" 
	d="
M96.143845,224.577927 
	C95.755623,228.121506 94.328209,226.817368 92.673752,225.491150 
	C91.424683,222.179733 91.468750,219.494583 96.075005,217.576141 
	C96.075005,220.148163 96.075005,222.149292 96.143845,224.577927 
z"/>
</svg>