<svg xmlns="http://www.w3.org/2000/svg" width="512" height="512" fill="none"><defs><linearGradient id="a" x1="41.727" x2="496.857" y1="26" y2="479.992" gradientUnits="userSpaceOnUse"><stop stop-color="#F9D423"/><stop offset="1" stop-color="#FF4E50"/></linearGradient></defs><g fill="url(#a)"><path d="M378.576 94.189h39.277l-3.546 16.91q9.273-8.182 16.638-12.546 7.637-4.365 16.365-4.364 8.729 0 13.638 6 5.182 6.001 5.182 14.456 0 7.91-5.182 13.911t-14.456 6q-6 0-8.183-2.727-1.909-3.001-3-8.456-.818-3.546-1.636-5.182-.819-1.637-3.001-1.637-5.727 0-9.819 2.455-3.819 2.182-10.092 7.91l-21.82 103.647h-39.277z"/><path d="M249.191 232.202q-15.547 0-25.912-10.637t-10.365-33.276q0-20.184 7.91-42.277 8.183-22.366 24.002-37.64 16.093-15.547 38.186-15.547 11.182 0 16.638 3.818 5.455 3.819 5.455 10.092v1.91l3-14.456h39.277l-19.638 92.736q-1.091 4.092-1.091 8.728 0 11.729 11.183 11.729 7.636 0 13.092-7.092 5.727-7.092 9.001-18.547h11.455q-10.091 29.457-25.093 40.095-14.728 10.364-29.73 10.364-11.456 0-18.547-6.273-6.82-6.547-8.183-18.82-7.91 11.183-17.729 18.274-9.546 6.819-22.911 6.819m17.729-26.457q6.817 0 13.365-6.273 6.818-6.546 9.273-17.729L302.65 120.1q0-3.546-2.727-6.819-2.728-3.545-8.456-3.545-10.91 0-19.638 12.819-8.728 12.547-13.638 30.549-4.91 17.728-4.909 31.366 0 13.638 3.818 17.457 4.092 3.818 9.82 3.818m-119.637 29.458q-10.91 0-19.093-4.637-7.91-4.365-7.91-15.547 0-7.092 3.546-15.82 4.91 5.455 9.001 7.637 4.363 2.182 9.274 2.182 13.637 0 20.183-15.274 6.819-15.275 6.819-33.822 0-34.64-25.911-34.639-7.365 0-12.547.818l-22.366 104.465H69.002l37.095-173.472 40.368-5.455-12.82 60.551h1.637q10.364 0 19.365-6.546 9.001-6.82 14.456-16.91 5.455-10.365 5.455-20.73 0-12.546-9.001-21.002-8.727-8.455-27.002-8.455-16.639 0-32.458 7.637-15.82 7.365-25.912 22.366-9.819 15-9.819 36.276 0 10.092 1.91 14.183 1.909 3.82 1.909 4.364-14.457 0-21.82-5.728Q45 111.645 45 98.28q0-18.547 13.91-35.185t36.822-26.73Q118.644 26 144.01 26q19.093 0 32.185 6 13.092 6.001 19.365 15.82 6.546 9.82 6.546 21.548 0 12.546-7.091 24.275t-20.184 19.093q16.365 3 24.275 15.274 7.91 12.001 7.91 28.639 0 15.548-6.001 33.822-5.727 18.274-19.365 31.639-13.365 13.093-34.367 13.093M397.621 482.5q-16.228 0-24.184-9.865-7.637-9.864-7.637-26.093 0-8.274 1.909-16.866l20.366-95.464h-10.501l2.545-12.728h10.502l9.546-43.914 47.095-6.364q-2.863 12.093-3.182 14.32-2.227 8.91-7.637 35.958h19.093l-2.546 12.728h-19.092l-20.366 95.464q-1.591 7-1.591 11.138 0 11.455 11.137 11.455 5.729 0 8.274-.954-6.364 18.456-14.956 24.82t-18.775 6.365"/><path d="M291.087 482.5q-23.548 0-36.595-12.092-13.047-12.411-13.047-38.504 0-21.957 8.592-48.369t28.003-45.504q19.411-19.411 49.323-19.411 35.004 0 35.004 30.548 0 17.82-10.183 32.776t-27.048 24.184q-16.866 8.91-35.959 10.183-.636 9.547-.636 12.729 0 15.593 5.41 21.32 5.41 5.41 17.501 5.41 17.184 0 29.276-7.956 12.411-7.955 27.048-24.184h10.819q-35.321 58.87-87.508 58.87m.636-81.463q11.773-.636 22.275-8.273 10.82-7.638 17.184-19.411 6.682-11.774 6.682-24.821t-7.955-13.047q-11.456 0-22.593 20.048-10.82 20.048-15.593 45.504M164.876 486q-12.729 0-22.275-5.41-9.23-5.091-9.229-18.138 0-8.273 4.137-18.456 5.728 6.365 10.501 8.91a23.9 23.9 0 0 0 10.819 2.546q15.912 0 23.548-17.82 7.956-17.82 7.956-39.459 0-40.413-30.231-40.413-8.592 0-14.637.955L119.371 480.59H73.548l43.277-202.383 47.096-6.365-14.956 70.644h1.909q12.093 0 22.593-7.637 10.501-7.955 16.866-19.73 6.363-12.091 6.364-24.184 0-14.637-10.501-24.502-10.184-9.865-31.503-9.865-19.411 0-37.868 8.91-18.455 8.592-30.23 26.094-11.456 17.502-11.456 42.322 0 11.774 2.228 16.547 2.227 4.455 2.227 5.092-16.865 0-25.457-6.683-8.59-7-8.591-22.593 0-21.639 16.228-41.05 16.23-19.41 42.959-31.184 26.73-12.093 56.324-12.093 22.275 0 37.549 7.001 15.275 7 22.593 18.457 7.637 11.455 7.637 25.138 0 14.638-8.273 28.321t-23.548 22.275q19.093 3.501 28.321 17.82 9.228 14.001 9.228 33.413 0 18.138-7 39.458-6.683 21.32-22.594 36.913Q189.377 486 164.876 486"/></g></svg>